<svg width="420" height="420" viewBox="0 0 420 420" fill="none" xmlns="http://www.w3.org/2000/svg">
<path fill-rule="evenodd" clip-rule="evenodd" d="M109.831 151.41C112.839 148.515 116.874 146.934 121.048 147.013C125.222 147.091 129.194 148.824 132.091 151.83L210.001 234.528L287.911 151.83C289.327 150.269 291.042 149.008 292.955 148.121C294.867 147.235 296.938 146.742 299.045 146.671C301.151 146.599 303.251 146.952 305.219 147.707C307.187 148.462 308.983 149.604 310.501 151.067C312.02 152.529 313.229 154.281 314.058 156.219C314.887 158.157 315.318 160.241 315.326 162.349C315.335 164.457 314.92 166.545 314.106 168.49C313.293 170.434 312.098 172.196 310.591 173.67L221.341 268.17C219.872 269.694 218.11 270.907 216.162 271.735C214.213 272.563 212.118 272.99 210.001 272.99C207.884 272.99 205.788 272.563 203.84 271.735C201.892 270.907 200.13 269.694 198.661 268.17L109.411 173.67C106.516 170.661 104.935 166.627 105.014 162.453C105.092 158.279 106.825 154.307 109.831 151.41V151.41Z" fill="#031013"/>
</svg>
