<svg width="420" height="420" viewBox="0 0 420 420" fill="none" xmlns="http://www.w3.org/2000/svg">
<path fill-rule="evenodd" clip-rule="evenodd" d="M39.3745 210C39.3745 115.762 115.762 39.375 210 39.375C304.237 39.375 380.625 115.762 380.625 210C380.625 304.238 304.237 380.625 210 380.625C115.762 380.625 39.3745 304.238 39.3745 210ZM191.73 184.765C211.785 174.737 234.377 192.867 228.935 214.62L216.527 264.25L217.262 263.9C220.346 262.544 223.833 262.426 227.001 263.57C230.17 264.714 232.777 267.033 234.283 270.046C235.79 273.059 236.08 276.535 235.094 279.757C234.108 282.978 231.922 285.696 228.987 287.35L228.287 287.735C208.215 297.762 185.622 279.633 191.065 257.88L203.49 208.25L202.755 208.6C201.206 209.46 199.5 209.999 197.739 210.182C195.977 210.366 194.197 210.191 192.504 209.668C190.812 209.145 189.243 208.285 187.892 207.14C186.541 205.995 185.436 204.588 184.643 203.004C183.85 201.421 183.386 199.693 183.278 197.925C183.17 196.157 183.422 194.386 184.017 192.718C184.612 191.05 185.538 189.519 186.741 188.219C187.943 186.918 189.396 185.874 191.012 185.15L191.73 184.765V184.765ZM210 157.5C213.48 157.5 216.819 156.117 219.28 153.656C221.742 151.194 223.125 147.856 223.125 144.375C223.125 140.894 221.742 137.556 219.28 135.094C216.819 132.633 213.48 131.25 210 131.25C206.519 131.25 203.18 132.633 200.719 135.094C198.257 137.556 196.875 140.894 196.875 144.375C196.875 147.856 198.257 151.194 200.719 153.656C203.18 156.117 206.519 157.5 210 157.5Z" fill="#74777C"/>
</svg>
