<svg width="420" height="420" viewBox="0 0 420 420" fill="none" xmlns="http://www.w3.org/2000/svg">
<path  fill-rule="evenodd" clip-rule="evenodd" d="M210.003 91.8759C231.231 91.8759 252.266 92.6809 273.091 94.2384C286.731 95.2353 299.558 101.105 309.228 110.776C318.899 120.447 324.769 133.273 325.766 146.913C326.536 157.116 327.113 167.388 327.516 177.696L298.028 148.226C296.827 146.936 295.378 145.902 293.768 145.185C292.158 144.467 290.42 144.082 288.658 144.051C286.895 144.019 285.145 144.344 283.511 145.004C281.876 145.664 280.392 146.646 279.145 147.893C277.899 149.139 276.916 150.624 276.256 152.258C275.596 153.892 275.272 155.643 275.303 157.405C275.334 159.167 275.72 160.905 276.437 162.515C277.155 164.125 278.189 165.574 279.478 166.776L331.978 219.276C334.439 221.734 337.775 223.114 341.253 223.114C344.732 223.114 348.068 221.734 350.528 219.276L403.028 166.776C405.347 164.288 406.609 160.997 406.549 157.597C406.489 154.196 405.112 150.952 402.707 148.548C400.302 146.143 397.058 144.765 393.658 144.705C390.257 144.645 386.967 145.907 384.478 148.226L353.818 178.868C353.416 167.493 352.768 156.188 351.928 144.936C350.456 125.039 341.885 106.334 327.778 92.2264C313.671 78.119 294.965 69.5484 275.068 68.0759C231.753 64.808 188.254 64.808 144.938 68.0759C125.042 69.5484 106.336 78.119 92.229 92.2264C78.1215 106.334 69.551 125.039 68.0785 144.936C67.781 148.856 67.501 152.758 67.2735 156.696C67.1401 158.431 67.3533 160.176 67.9005 161.828C68.4478 163.48 69.3182 165.007 70.4611 166.32C71.604 167.633 72.9965 168.705 74.5577 169.474C76.1189 170.244 77.8176 170.695 79.5548 170.802C81.292 170.908 83.0331 170.669 84.6768 170.096C86.3205 169.524 87.8339 168.63 89.1289 167.467C90.4239 166.304 91.4748 164.895 92.2202 163.323C92.9656 161.75 93.3908 160.045 93.471 158.306C93.6985 154.508 93.961 150.711 94.241 146.913C95.2379 133.273 101.108 120.447 110.778 110.776C120.449 101.105 133.276 95.2353 146.916 94.2384C167.741 92.6634 188.776 91.8759 210.003 91.8759V91.8759ZM88.0285 200.726C85.5675 198.268 82.2316 196.887 78.7535 196.887C75.2753 196.887 71.9394 198.268 69.4785 200.726L16.9785 253.226C15.689 254.428 14.6547 255.877 13.9373 257.487C13.22 259.096 12.8342 260.834 12.8031 262.597C12.772 264.359 13.0962 266.11 13.7563 267.744C14.4165 269.378 15.399 270.863 16.6453 272.109C17.8916 273.355 19.3762 274.338 21.0105 274.998C22.6448 275.658 24.3953 275.982 26.1576 275.951C27.9199 275.92 29.6579 275.534 31.2679 274.817C32.8779 274.1 34.3269 273.065 35.5285 271.776L66.1885 241.133C66.591 252.508 67.2385 263.813 68.0785 275.066C69.551 294.962 78.1215 313.668 92.229 327.775C106.336 341.883 125.042 350.453 144.938 351.926C188.254 355.194 231.753 355.194 275.068 351.926C294.965 350.453 313.671 341.883 327.778 327.775C341.885 313.668 350.456 294.962 351.928 275.066C352.226 271.163 352.488 267.243 352.733 263.306C352.892 259.863 351.691 256.497 349.388 253.932C347.086 251.368 343.867 249.813 340.427 249.601C336.988 249.39 333.603 250.54 331.004 252.803C328.405 255.066 326.8 258.26 326.536 261.696C326.308 265.493 326.046 269.291 325.766 273.088C324.769 286.729 318.899 299.555 309.228 309.226C299.558 318.897 286.731 324.767 273.091 325.763C231.092 328.93 188.915 328.93 146.916 325.763C133.276 324.767 120.449 318.897 110.778 309.226C101.108 299.555 95.2379 286.729 94.241 273.088C93.4684 262.839 92.885 252.577 92.491 242.306L121.978 271.776C124.467 274.094 127.757 275.356 131.158 275.297C134.558 275.237 137.802 273.859 140.207 271.454C142.612 269.05 143.989 265.805 144.049 262.405C144.109 259.005 142.847 255.714 140.528 253.226L88.0285 200.726V200.726Z" fill="#39D0FF"/>
<style>
path {
    fill: #031013;
}
</style>
</svg>
