<svg width="422" height="420" viewBox="0 0 422 420" fill="none" xmlns="http://www.w3.org/2000/svg">
<rect x="0.0994873" width="421.05" height="420" rx="210" fill="#F5AC37"/>
<g clip-path="url(#clip0_1_1027)">
<path d="M210.625 21C315.277 21 400.097 105.626 400.097 210C400.097 314.391 315.277 399 210.625 399C105.989 399 21.1523 314.383 21.1523 210C21.1523 105.626 105.989 21 210.625 21Z" fill="#F5AC37"/>
<path d="M217.608 223.344H289.604C291.139 223.344 291.864 223.344 291.975 221.336C292.563 214.031 292.563 206.682 291.975 199.368C291.975 197.947 291.267 197.361 289.724 197.361H146.439C144.665 197.361 144.188 197.947 144.188 199.606V220.63C144.188 223.344 144.188 223.344 147.027 223.344H217.608ZM283.934 172.789C284.139 172.254 284.139 171.667 283.934 171.139C282.732 168.528 281.308 166.036 279.654 163.697C277.164 159.7 274.231 156.017 270.889 152.709C269.312 150.71 267.487 148.916 265.441 147.393C255.192 138.692 243.008 132.535 229.911 129.439C223.304 127.959 216.551 127.253 209.781 127.313H146.191C144.418 127.313 144.179 128.019 144.179 129.558V171.488C144.179 173.257 144.179 173.733 146.43 173.733H283.082C283.082 173.733 284.267 173.495 284.506 172.789H283.934ZM283.934 247.915C281.922 247.694 279.893 247.694 277.881 247.915H146.558C144.784 247.915 144.188 247.915 144.188 250.279V291.274C144.188 293.162 144.188 293.638 146.558 293.638H207.189C210.088 293.859 212.987 293.655 215.826 293.051C224.625 292.422 233.279 290.517 241.533 287.378C244.534 286.341 247.433 284.988 250.17 283.364H250.997C265.21 275.99 276.755 264.406 284.037 250.186C284.037 250.186 284.864 248.4 283.934 247.932V247.915ZM120.391 314.892V314.186V286.664V277.334V249.573C120.391 248.034 120.391 247.804 118.498 247.804H92.7993C91.3754 247.804 90.7871 247.804 90.7871 245.916V223.471H118.259C119.794 223.471 120.391 223.471 120.391 221.464V199.257C120.391 197.837 120.391 197.488 118.498 197.488H92.7993C91.3754 197.488 90.7871 197.488 90.7871 195.6V174.814C90.7871 173.512 90.7871 173.164 92.68 173.164H118.14C119.913 173.164 120.391 173.164 120.391 170.918V107.249C120.391 105.361 120.391 104.885 122.761 104.885H211.571C218.017 105.14 224.42 105.846 230.756 107.011C243.809 109.418 256.352 114.07 267.82 120.713C275.425 125.178 282.425 130.57 288.658 136.779C293.347 141.635 297.576 146.891 301.328 152.488C305.054 158.161 308.149 164.225 310.579 170.561C310.878 172.211 312.463 173.325 314.118 173.045H335.314C338.034 173.045 338.034 173.045 338.153 175.647V195.022C338.153 196.91 337.446 197.386 335.544 197.386H319.199C317.545 197.386 317.068 197.386 317.187 199.512C317.835 206.708 317.835 213.928 317.187 221.124C317.187 223.131 317.187 223.369 319.447 223.369H338.145C338.972 224.432 338.145 225.495 338.145 226.567C338.264 227.936 338.264 229.323 338.145 230.692V244.989C338.145 246.996 337.556 247.592 335.774 247.592H313.393C311.833 247.294 310.315 248.289 309.957 249.837C304.628 263.658 296.101 276.05 285.085 285.983C281.061 289.598 276.832 293 272.415 296.139C267.675 298.86 263.062 301.692 258.202 303.938C249.258 307.952 239.879 310.912 230.252 312.791C221.112 314.424 211.844 315.164 202.542 315.037H120.356V314.918L120.391 314.892Z" fill="#FEFEFD"/>
</g>
<defs>
<clipPath id="clip0_1_1027">
<rect width="378.945" height="378" fill="white" transform="translate(21.1523 21)"/>
</clipPath>
</defs>
</svg>
