<?xml version="1.0" encoding="UTF-8" standalone="no"?>
<!DOCTYPE svg PUBLIC "-//W3C//DTD SVG 20010904//EN"
              "http://www.w3.org/TR/2001/REC-SVG-20010904/DTD/svg10.dtd">

<svg xmlns="http://www.w3.org/2000/svg"
     width="12.9706mm" height="12.9706mm"
     viewBox="0 0 256 256">
  <path id="Selection"
        fill="#118C4F"
        d="M 112.00,0.21
           C 112.00,0.21 136.00,0.21 136.00,0.21
             150.70,0.02 169.84,5.28 183.00,11.76
             199.86,20.05 214.53,30.47 226.68,45.00
             265.18,91.03 266.03,159.46 229.87,207.00
             220.63,219.15 206.37,231.66 193.00,239.14
             176.41,248.42 155.18,255.97 136.00,256.00
             136.00,256.00 118.00,256.00 118.00,256.00
             110.19,255.90 99.55,253.58 92.00,251.42
             52.20,240.06 20.35,210.13 6.69,171.00
             -0.30,150.94 -0.10,139.58 0.00,119.00
             0.04,111.18 2.12,100.55 4.29,93.00
             13.06,62.46 31.92,36.19 59.00,19.23
             76.58,8.21 91.82,3.73 112.00,0.21 Z
           M 136.00,69.00
           C 136.00,65.89 136.53,56.69 134.98,54.43
             132.66,51.07 122.50,51.05 120.17,54.43
             117.58,58.20 120.60,66.00 117.40,69.44
             115.76,71.21 108.43,73.02 105.00,74.90
             92.87,81.55 87.85,90.44 88.00,104.00
             88.22,122.44 103.87,130.29 119.00,135.95
             126.14,138.62 137.05,142.23 139.98,150.00
             142.10,155.62 137.94,160.79 133.00,162.84
             125.54,166.42 113.65,164.96 106.00,162.84
             103.14,161.79 98.97,160.20 96.00,160.74
             88.61,162.09 85.44,174.69 91.15,179.49
             95.69,183.32 111.78,185.50 118.00,186.00
             118.00,189.50 117.21,199.01 119.60,201.40
             121.73,203.54 132.04,203.85 133.98,201.40
             135.31,199.71 134.99,195.16 135.00,193.00
             135.09,179.98 140.68,186.55 154.00,177.23
             164.58,169.82 168.14,161.56 168.00,149.00
             167.76,128.62 152.31,121.93 136.00,115.40
             129.75,112.90 115.76,107.92 115.41,100.00
             115.05,91.63 124.47,89.08 131.00,89.00
             134.73,88.96 137.29,88.95 141.00,89.62
             150.23,91.28 159.07,95.76 161.29,82.00
             163.26,69.79 144.36,69.18 136.00,69.00 Z" />
</svg>
