<?xml version="1.0" encoding="UTF-8" standalone="no"?>
<!DOCTYPE svg PUBLIC "-//W3C//DTD SVG 20010904//EN"
              "http://www.w3.org/TR/2001/REC-SVG-20010904/DTD/svg10.dtd">

<svg xmlns="http://www.w3.org/2000/svg"
     width="11.125in" height="5.35417in"
     viewBox="0 0 1068 514">
  <path id="Selection"
        fill="#8246e4"
        d="M 336.00,90.00
           C 341.31,78.58 362.33,67.18 373.00,60.46
             373.00,60.46 381.00,55.21 381.00,55.21
             403.74,42.88 432.28,33.46 458.00,30.29
             458.00,30.29 476.00,28.91 476.00,28.91
             476.00,28.91 486.00,28.00 486.00,28.00
             486.00,28.00 512.00,29.83 512.00,29.83
             512.00,29.83 522.00,30.43 522.00,30.43
             522.00,30.43 559.00,39.00 559.00,39.00
             565.02,41.03 573.50,45.85 579.00,46.00
             579.00,46.00 597.00,55.35 597.00,55.35
             612.48,64.62 625.07,72.31 638.72,84.51
             638.72,84.51 651.48,96.42 651.48,96.42
             651.48,96.42 656.52,102.72 656.52,102.72
             656.52,102.72 663.79,110.00 663.79,110.00
             669.38,116.42 674.60,124.89 679.36,132.00
             679.36,132.00 686.75,143.00 686.75,143.00
             696.39,160.29 707.63,189.55 711.55,209.00
             715.67,229.44 716.24,244.32 716.00,265.00
             716.00,265.00 715.08,275.00 715.08,275.00
             713.25,297.93 708.30,316.68 699.92,338.00
             689.92,363.45 680.30,380.35 662.41,401.27
             662.41,401.27 654.63,410.84 654.63,410.84
             654.63,410.84 647.46,417.21 647.46,417.21
             614.12,450.43 570.46,472.24 524.00,479.56
             507.76,482.12 492.37,482.19 476.00,482.00
             463.65,481.85 444.00,478.46 432.00,475.24
             432.00,475.24 423.00,471.97 423.00,471.97
             423.00,471.97 402.00,465.19 402.00,465.19
             390.46,460.68 368.46,448.29 358.28,441.09
             358.28,441.09 340.83,426.59 340.83,426.59
             340.83,426.59 323.00,410.56 323.00,410.56
             315.56,402.77 309.29,394.15 303.29,385.28
             303.29,385.28 292.92,370.00 292.92,370.00
             282.70,352.84 271.81,325.47 267.24,306.00
             267.24,306.00 265.54,293.00 265.54,293.00
             265.54,293.00 263.29,282.00 263.29,282.00
             259.85,255.86 262.53,230.64 267.63,205.00
             267.63,205.00 268.76,198.00 268.76,198.00
             271.46,187.50 275.74,176.97 279.96,167.00
             279.96,167.00 283.45,158.00 283.45,158.00
             291.88,139.46 303.64,121.58 317.23,106.42
             317.23,106.42 333.13,90.76 333.13,90.76
             334.87,89.76 334.99,90.20 336.00,90.00 Z
           M 590.00,55.00
           C 590.00,55.00 589.00,55.00 589.00,55.00
             589.00,55.00 590.00,56.00 590.00,56.00
             590.00,56.00 590.00,55.00 590.00,55.00 Z
           M 626.00,78.00
           C 626.00,78.00 625.00,78.00 625.00,78.00
             625.00,78.00 626.00,79.00 626.00,79.00
             626.00,79.00 626.00,78.00 626.00,78.00 Z
           M 319.00,110.00
           C 319.00,110.00 318.00,110.00 318.00,110.00
             318.00,110.00 319.00,111.00 319.00,111.00
             319.00,111.00 319.00,110.00 319.00,110.00 Z
           M 473.00,224.00
           C 481.59,223.73 486.58,218.71 494.00,214.75
             496.76,213.27 500.19,212.34 502.11,209.78
             503.91,207.37 503.95,204.86 504.00,202.00
             504.00,202.00 504.00,194.00 504.00,194.00
             504.04,185.40 506.12,180.57 501.47,172.04
             498.31,166.25 491.20,163.99 486.00,160.06
             477.51,153.64 479.30,156.37 473.00,152.94
             473.00,152.94 446.00,137.88 446.00,137.88
             437.14,133.39 434.84,129.26 424.00,129.01
             421.12,128.95 417.75,128.94 415.00,129.80
             415.00,129.80 386.00,145.60 386.00,145.60
             386.00,145.60 370.00,154.56 370.00,154.56
             370.00,154.56 363.42,157.78 363.42,157.78
             363.42,157.78 357.00,162.24 357.00,162.24
             352.16,165.15 346.38,166.76 343.10,172.00
             341.07,175.23 341.01,180.32 341.00,184.00
             341.00,184.00 341.00,252.00 341.00,252.00
             341.01,260.93 341.68,265.42 350.00,270.32
             350.00,270.32 361.04,276.38 361.04,276.38
             362.68,277.17 366.04,278.23 367.09,279.58
             368.14,280.95 367.95,282.42 368.00,284.00
             368.00,284.00 377.00,283.00 377.00,283.00
             377.00,283.00 376.00,287.00 376.00,287.00
             383.63,287.27 382.45,289.03 389.01,292.50
             397.55,297.00 412.83,306.40 422.00,307.44
             430.90,308.46 444.48,299.51 452.00,295.10
             452.00,295.10 473.00,283.66 473.00,283.66
             473.00,283.66 489.00,274.03 489.00,274.03
             489.00,274.03 500.42,267.81 500.42,267.81
             500.42,267.81 516.00,258.93 516.00,258.93
             520.58,256.27 522.31,253.44 528.00,253.00
             534.52,246.37 540.09,248.31 545.00,239.89
             548.87,240.58 549.40,240.03 553.00,239.89
             559.89,239.30 568.02,244.85 574.00,248.28
             589.42,257.13 603.97,259.91 604.00,281.00
             604.00,281.00 604.00,305.00 604.00,305.00
             603.90,313.26 601.90,313.04 601.00,320.00
             596.80,320.86 595.55,323.80 591.92,325.73
             591.92,325.73 586.59,327.93 586.59,327.93
             586.59,327.93 582.79,330.95 582.79,330.95
             582.79,330.95 566.00,340.08 566.00,340.08
             561.82,342.06 557.79,344.45 553.00,344.25
             550.97,344.16 548.01,343.47 546.17,342.62
             546.17,342.62 526.00,330.95 526.00,330.95
             520.20,327.96 510.52,323.99 507.57,317.99
             506.25,315.30 504.34,304.13 504.34,301.00
             504.32,293.46 506.19,294.73 503.00,286.00
             503.00,286.00 496.00,286.00 496.00,286.00
             492.44,291.76 480.14,295.15 475.36,299.41
             471.69,302.67 471.95,308.51 471.78,312.99
             472.08,317.75 470.49,325.44 471.78,328.83
             471.78,328.83 473.46,333.17 473.46,333.17
             473.46,333.17 474.59,337.96 474.59,337.96
             476.40,342.42 481.84,344.93 485.83,347.09
             485.83,347.09 506.99,359.25 506.99,359.25
             506.99,359.25 526.72,369.45 526.72,369.45
             533.67,373.83 544.32,382.30 553.00,382.37
             564.11,382.45 575.00,374.54 584.17,368.94
             589.18,365.88 597.19,363.67 600.00,359.00
             600.00,359.00 602.00,360.00 602.00,360.00
             604.68,357.68 606.05,357.45 609.00,355.82
             609.00,355.82 620.00,349.01 620.00,349.01
             629.42,343.50 638.81,339.23 637.82,326.00
             637.82,326.00 636.01,313.00 636.01,313.00
             636.01,313.00 637.00,297.00 637.00,297.00
             637.00,297.00 636.04,281.00 636.04,281.00
             636.04,281.00 636.04,265.00 636.04,265.00
             636.02,260.63 637.40,254.65 636.04,251.00
             632.67,241.22 627.36,239.78 618.99,235.74
             613.89,233.28 614.24,231.87 608.00,231.00
             606.75,226.75 598.14,223.68 594.00,223.00
             593.80,222.22 594.24,222.05 593.23,220.81
             593.23,220.81 579.00,212.25 579.00,212.25
             568.42,206.71 558.55,199.04 546.00,203.30
             540.59,205.14 535.93,208.48 531.09,211.42
             531.09,211.42 518.91,218.97 518.91,218.97
             518.91,218.97 502.00,227.94 502.00,227.94
             502.00,227.94 494.00,232.97 494.00,232.97
             494.00,232.97 459.17,252.24 459.17,252.24
             459.17,252.24 431.83,268.49 431.83,268.49
             429.76,269.31 422.25,270.10 420.00,269.86
             416.18,269.44 407.87,264.17 404.00,262.08
             404.00,262.08 388.00,252.80 388.00,252.80
             384.01,250.45 379.48,248.94 376.71,244.83
             374.34,241.30 374.01,235.14 374.00,231.00
             374.00,231.00 374.00,207.00 374.00,207.00
             374.03,201.55 374.52,195.79 377.48,191.04
             382.36,183.21 396.02,178.34 404.00,174.05
             409.97,170.85 415.99,165.66 423.00,166.10
             432.36,166.68 435.86,170.77 443.28,175.01
             450.93,179.39 460.41,182.94 466.70,189.30
             475.15,197.86 470.69,213.22 471.30,218.00
             471.55,219.98 472.41,222.09 473.00,224.00 Z
           M 368.00,153.00
           C 368.00,153.00 367.00,153.00 367.00,153.00
             367.00,153.00 368.00,154.00 368.00,154.00
             368.00,154.00 368.00,153.00 368.00,153.00 Z
           M 466.00,191.00
           C 466.00,191.00 465.00,191.00 465.00,191.00
             465.00,191.00 466.00,192.00 466.00,192.00
             466.00,192.00 466.00,191.00 466.00,191.00 Z
           M 457.00,295.00
           C 457.00,295.00 456.00,295.00 456.00,295.00
             456.00,295.00 457.00,296.00 457.00,296.00
             457.00,296.00 457.00,295.00 457.00,295.00 Z
           M 416.00,306.00
           C 416.00,306.00 415.00,306.00 415.00,306.00
             415.00,306.00 416.00,307.00 416.00,307.00
             416.00,307.00 416.00,306.00 416.00,306.00 Z
           M 626.00,433.00
           C 626.00,433.00 625.00,433.00 625.00,433.00
             625.00,433.00 626.00,434.00 626.00,434.00
             626.00,434.00 626.00,433.00 626.00,433.00 Z
           M 611.00,441.00
           C 611.00,441.00 610.00,441.00 610.00,441.00
             610.00,441.00 611.00,442.00 611.00,442.00
             611.00,442.00 611.00,441.00 611.00,441.00 Z
           M 393.00,456.00
           C 393.00,456.00 392.00,456.00 392.00,456.00
             392.00,456.00 393.00,457.00 393.00,457.00
             393.00,457.00 393.00,456.00 393.00,456.00 Z
           M 561.00,467.00
           C 561.00,467.00 560.00,467.00 560.00,467.00
             560.00,467.00 561.00,468.00 561.00,468.00
             561.00,468.00 561.00,467.00 561.00,467.00 Z" />
</svg>
