<svg width="422" height="420" viewBox="0 0 422 420" fill="none" xmlns="http://www.w3.org/2000/svg">
<rect x="0.0498047" width="421.05" height="420" rx="210" fill="#2775CA"/>
<g clip-path="url(#clip0_1_1014)">
<path d="M210.367 357C292.034 357 357.735 291.463 357.735 210C357.735 128.537 292.034 63 210.367 63C128.701 63 63 128.537 63 210C63 291.463 128.701 357 210.367 357Z" fill="#2775CA"/>
<path d="M250.894 233.273C250.894 211.836 237.999 204.486 212.21 201.424C193.789 198.973 190.105 194.074 190.105 185.498C190.105 176.922 196.246 171.411 208.526 171.411C219.579 171.411 225.719 175.086 228.789 184.273C229.403 186.111 231.246 187.335 233.088 187.335H242.911C245.368 187.335 247.21 185.498 247.21 183.049V182.436C244.753 168.96 233.701 158.548 219.579 157.324V142.624C219.579 140.173 217.736 138.336 214.667 137.723H205.456C203 137.723 201.158 139.56 200.543 142.624V156.711C182.122 159.161 170.457 171.411 170.457 186.724C170.457 206.936 182.737 214.898 208.526 217.961C225.719 221.023 231.246 224.698 231.246 234.499C231.246 244.299 222.648 251.036 210.983 251.036C195.017 251.036 189.491 244.298 187.648 235.11C187.035 232.661 185.193 231.435 183.351 231.435H172.912C170.457 231.435 168.614 233.273 168.614 235.723V236.336C171.07 251.648 180.895 262.673 201.158 265.736V280.436C201.158 282.885 203 284.723 206.069 285.336H215.28C217.736 285.336 219.579 283.498 220.193 280.436V265.736C238.614 262.673 250.894 249.81 250.894 233.273Z" fill="white"/>
<path d="M179.051 297.588C131.156 280.439 106.595 227.152 124.403 179.988C133.613 154.263 153.876 134.664 179.051 125.476C181.507 124.252 182.735 122.414 182.735 119.351V110.776C182.735 108.326 181.507 106.488 179.051 105.877C178.436 105.877 177.209 105.877 176.594 106.488C118.262 124.863 86.3316 186.727 104.753 244.914C115.805 279.213 142.209 305.551 176.594 316.576C179.051 317.801 181.507 316.576 182.12 314.126C182.735 313.514 182.735 312.901 182.735 311.677V303.101C182.735 301.263 180.893 298.814 179.051 297.588ZM244.139 106.488C241.682 105.264 239.225 106.488 238.612 108.939C237.998 109.552 237.998 110.163 237.998 111.389V119.964C237.998 122.414 239.84 124.863 241.682 126.089C289.576 143.238 314.138 196.526 296.33 243.689C287.12 269.414 266.857 289.014 241.682 298.201C239.225 299.426 237.998 301.263 237.998 304.327V312.901C237.998 315.352 239.225 317.189 241.682 317.801C242.296 317.801 243.524 317.801 244.139 317.189C302.471 298.814 334.401 236.951 315.98 178.764C304.928 143.851 277.909 117.513 244.139 106.488Z" fill="white"/>
</g>
<defs>
<clipPath id="clip0_1_1014">
<rect width="294.735" height="294" fill="white" transform="translate(63 63)"/>
</clipPath>
</defs>
</svg>
